PathFileType	4	(X/Y/Z)	45_2_52_p0_0-212.trc
DataRate	CameraRate	NumFrames	NumMarkers	Units	OrigDataRate	OrigDataStartFrame	OrigNumFrames
56.0	56.0	5	27	m	56.0	133	213
Frame#	Time	RHip			RKnee			RAnkle			RBigToe			RSmallToe			RHeel			LHip			LKnee			LAnkle			LBigToe			LSmallToe			LHeel			Neck			Head			Nose			RShoulder			RElbow			RWrist			RThumb			RIndex			RPinky			LShoulder			LElbow			LWrist			LThumb			LIndex			LPinky			
		X1	Y1	Z1	X2	Y2	Z2	X3	Y3	Z3	X4	Y4	Z4	X5	Y5	Z5	X6	Y6	Z6	X7	Y7	Z7	X8	Y8	Z8	X9	Y9	Z9	X10	Y10	Z10	X11	Y11	Z11	X12	Y12	Z12	X13	Y13	Z13	X14	Y14	Z14	X15	Y15	Z15	X16	Y16	Z16	X17	Y17	Z17	X18	Y18	Z18	X19	Y19	Z19	X20	Y20	Z20	X21	Y21	Z21	X22	Y22	Z22	X23	Y23	Z23	X24	Y24	Z24	X25	Y25	Z25	X26	Y26	Z26	X27	Y27	Z27	
133	2.375	0.5303542488227854	0.5053188012209727	0.7981291081096235	0.5473284346473384	0.569513730885215	1.2464864389228432	0.5953989185701879	0.7529376980026906	1.6768891061703644	0.5743585069680872	0.5937278618347629	1.7289467386374846	0.6404095167397174	0.623723363307334	1.7288709874178032	0.6011922081441953	0.8738105233001479	1.7459242706586824	0.307655061718399	0.4872804775357401	0.8328057954853505	0.3868925843445357	0.568598869160344	1.2618768668414582	0.4139609033862609	0.8446081606174062	1.7227669425246235	0.4398414956109132	0.6046301571409316	1.7434382570455036	0.38989337175763783	0.6790344242054485	1.7656960506959463	0.4295741513700212	0.8878327469283837	1.7627555578435457	0.35149249787277964	0.22941491928704943	0.29785944339801895	0.33292670157587806	0.10256860924121172	0.08526942847486599	0.37097228016839384	0.1052366505315957	0.22113807004424657	0.523688582693681	0.27702139015987326	0.3408732546868894	0.7009330084366688	0.4060366973718863	0.5051306462189764	0.6842384408273804	0.16412914207385937	0.3901848613637654	0.6528780203013229	0.12950002972014593	0.2935221480560408	0.6738413154918961	0.1478102882861227	0.27189764289429524	0.7113556357464087	0.14918478803113058	0.29010354917019954	0.20559171890431355	0.22270710398019186	0.37358020635741185	0.029579807989957664	0.244824925751738	0.5661266852023225	0.07459047099231632	0.011882659953814394	0.5123283826831405	0.07699266866559934	-0.0008303991463296719	0.43197737153253296	0.06788602213221187	-0.019949073548955	0.42271799059903903	0.036978518763435955	-0.06055981462959153	0.44711394836312507
134	2.392857142857143	0.5294406416336691	0.5029331273793931	0.7943357060530394	0.5462594693037482	0.5668182678847578	1.2421111165403558	0.5955284606894042	0.7533908241242103	1.6772577185941036	0.5744678517208337	0.5945038167750657	1.7291864860915236	0.6400920205449453	0.6233613797673574	1.7292421485106684	0.602002010791386	0.8736152736173255	1.7504303069018967	0.3068695592566402	0.48285295026381253	0.8251945572688916	0.3808965747010873	0.5855180102571509	1.2674904631853667	0.41094506594026303	0.8283959630385199	1.719944858294891	0.4400832624350874	0.6048850462718788	1.7433117392004842	0.39262407691982404	0.6932323372164018	1.7682720667064646	0.42219454281478974	0.865561909302414	1.761878799282024	0.3427883458118018	0.2396576795198737	0.2960563803312689	0.32148287777950474	0.12197143294775661	0.0700906763308512	0.3667467661383316	0.10318490249689667	0.2191621225555246	0.5223029127723685	0.27470012140447636	0.3337640824841416	0.7039959295553088	0.4157433426707262	0.49931494553137257	0.6822287109903438	0.15955758304964426	0.3773889593835013	0.6521076158027705	0.13809429190400022	0.2835042831830641	0.6707082003943303	0.1431460871447136	0.25550883210802366	0.7102018603144623	0.14908204141988313	0.2835486954850295	0.20317786010829963	0.20885793381769197	0.37281150599322416	0.024166461482050674	0.2384546312645308	0.5528284494228104	0.0688010145054133	0.016566470612047347	0.4986544334154986	0.08170138149124585	-0.017706725220181598	0.41402222323137994	0.06676935991316471	-0.025396814064328883	0.4047982076751262	0.036204866905981924	-0.040554926279488195	0.4295335892520841
135	2.4107142857142856	0.5382852141672123	0.4891896734132827	0.7902517797998914	0.5541212147526668	0.5825383741279384	1.2424722797247274	0.592599790050939	0.7687638337497895	1.6812908064794991	0.575794112250495	0.5952658671866367	1.728773756123451	0.6452222967574339	0.6259558788831033	1.7288716174418088	0.5944722766885673	0.8960532862363833	1.7612480479903823	0.30688689055411456	0.48248435732020156	0.8250259544645699	0.3811458466416008	0.5857278841165202	1.2717124881468647	0.41392563180196046	0.8447029492546102	1.7230039061652305	0.43098732950131596	0.6173646011518891	1.746697567279585	0.3875852891791135	0.7074537197343349	1.7682071004176863	0.43473842071169694	0.8948021085171158	1.763059076555917	0.34206669152273583	0.23911510430577593	0.2924645891135105	0.3146733751058844	0.10713138544324646	0.06581805480693681	0.36329148111590515	0.10179713468184484	0.21962682313048448	0.5126353530549939	0.2820281391837398	0.32118788823865285	0.702643145988312	0.4014500908088851	0.49002113188242	0.6839535993961111	0.1669704314130733	0.3678308058150646	0.6548248123067405	0.1383122485819537	0.27999874132220653	0.668694584073562	0.1395302798090574	0.2444282479553458	0.7037885565828522	0.15973065322084806	0.2685665915497812	0.19317372574201674	0.2152745725830794	0.36470696857414836	0.01775519287719021	0.2486412011063187	0.5473180740299579	0.06749115430619214	0.01108125801391071	0.4794826169749008	0.08584513406611605	-0.03023130909821188	0.40520488596223253	0.06404950866551636	-0.03145061760242818	0.37919668123555844	0.03614788067669834	-0.049591089830351154	0.40609268238890195
136	2.4285714285714284	0.5367366210997389	0.48608520246925924	0.7827879079535557	0.5588868926374391	0.5826772897441472	1.237617371016182	0.6008173624494573	0.7547200820565809	1.6811836041193062	0.581444922151588	0.5787503380350355	1.723331581701655	0.6460831268454459	0.6264167192149749	1.7284650383223956	0.5976847698101188	0.8729725819478744	1.750995115716032	0.306001740387077	0.47978170965230016	0.8212145728686987	0.3695349787634601	0.6166518841157921	1.2712673880067822	0.4156532660341046	0.8131980375815535	1.72024481981076	0.436029489761296	0.6016943620301255	1.742334192269851	0.3847194133403228	0.6754482218856205	1.7605628434321716	0.4372283401852824	0.8891176719081311	1.761098897252366	0.3412360543392595	0.2378069326154271	0.2859156632858684	0.3089469546389397	0.11637301890197231	0.056096221829202604	0.3546775952727458	0.10961847964781761	0.21446588216150028	0.5113538385338076	0.27887330659208215	0.3141430156767705	0.6969159535314245	0.39646117817053295	0.47979595869346797	0.6822763299965237	0.16372160501580466	0.35809438164088797	0.6501394520044854	0.1348781398907415	0.2704819393723308	0.6650207102181868	0.1320379418127049	0.22292519416942666	0.7208004334891369	0.13942100409863806	0.24425353736185088	0.18692807977454148	0.22496296103217794	0.3559692204969031	0.010851838408951485	0.2560320632201833	0.5356593067803055	0.06513703752194537	0.004505188037509258	0.4594770548826926	0.09864776965505237	-0.05056681551194774	0.3978114546838146	0.07176223598841751	-0.047092211228738204	0.36117477840963247	0.031395333026265085	-0.039180821752224856	0.38230651835708035
137	2.4464285714285716	0.5314554222548995	0.49804336438790836	0.7785247684857982	0.5578450635489574	0.6010760459409961	1.2393455261222694	0.5989681984155685	0.7531165075206944	1.6815431086820423	0.590793088284462	0.5913941360567028	1.7237576372367494	0.6549838817263549	0.6359335159517111	1.7285147170749744	0.6009726622629822	0.8498429957696905	1.741025633343587	0.3022653269554268	0.46405024012729085	0.8146806152983692	0.3579942394744295	0.6288941985485853	1.2730822975914013	0.4089082538137442	0.826061120766206	1.7191795650555504	0.4354064442501055	0.6033847473222609	1.7467361512681019	0.3884237252084998	0.6777039874329787	1.7638707418079846	0.436451857317131	0.8873127905853165	1.755441201411664	0.3310396243539863	0.24479868660246903	0.2735422779522705	0.30417158450172055	0.1274112006833076	0.052168268287537505	0.35399929837151956	0.10842684774218948	0.21117930562693865	0.5092708455801022	0.27372103503950945	0.3006371827771509	0.6949502883201454	0.3928952279987156	0.46883417871662647	0.6806522498677359	0.16221199159977476	0.3476707926993649	0.6303757691281856	0.13512927720699924	0.24163078322276535	0.6583943632877797	0.12539622639247824	0.20543711062777179	0.7064064935173026	0.12689853627964118	0.23881237772602568	0.18099809611368695	0.23472634592104144	0.35023585705684396	0.003909713298256389	0.25425906963928235	0.5336635498417318	0.06434503051315005	0.0025817246346761533	0.44977687923297643	0.10132463056283902	-0.029368131119140935	0.3816827090551915	0.07229539865714509	-0.040107600835217465	0.3524848039952541	0.03632051763667517	-0.05985940784164443	0.37308442089991445
